<?xml version="1.0" encoding="utf-8"?>
<!-- Generator: Adobe Illustrator 25.4.1, SVG Export Plug-In . SVG Version: 6.00 Build 0)  -->
<svg version="1.1" id="Layer_1" xmlns="http://www.w3.org/2000/svg" xmlns:xlink="http://www.w3.org/1999/xlink" x="0px" y="0px"
	 viewBox="0 0 936.01514 144" style="enable-background:new 0 0 936.01514 144;" xml:space="preserve">
<style type="text/css">
	.st0{fill:#FFFFFF;}
	.st1{opacity:0.7;fill:#FFFFFF;}
</style>
<g>
	<path class="st0" d="M180.59036,29.81462h24.11549l23.24384,57.5285l22.66275-57.5285h23.82494v83.09674h-20.04782V62.93709
		l-18.59508,49.68371H219.5238l-18.30453-49.97425v49.97425h-20.62891V29.81462z"/>
	<path class="st0" d="M349.6893,112.6208h-20.04782v-9.00698c-4.06763,5.52042-11.04083,9.58808-19.75726,9.58808
		c-15.10849,0-25.56824-10.45972-25.56824-28.18316V46.66641h20.04779v36.02795c0,9.00698,4.93933,13.9463,12.49359,13.9463
		c7.84479,0,12.78409-4.93932,12.78409-13.9463V46.66641h20.04779v65.95439H349.6893z"/>
	<path class="st0" d="M359.56793,25.4564h20.04782v87.45495h-20.04782V25.4564z"/>
	<path class="st0" d="M392.6904,63.51819h-8.13535V46.66641h8.13535V29.81463h20.04779v16.85178h13.07468v16.56124h-12.78412
		v26.73042c0,3.77712,1.74332,5.52042,6.10153,5.52042h7.2637v17.14233h-10.16919c-13.65573,0-23.24384-5.81096-23.24384-22.95329
		V63.5182C392.98096,63.5182,392.6904,63.5182,392.6904,63.51819z"/>
	<path class="st0" d="M431.04272,29.23353c0-6.10151,4.9393-11.04082,11.91248-11.04082
		c6.97314,0,11.91251,4.93932,11.91251,11.04082s-4.93933,10.75028-11.91251,10.75028
		C435.6915,39.98381,431.04272,35.04449,431.04272,29.23353z M432.78604,46.66641h20.04779v65.95439h-20.04779V46.66641z"/>
	<path class="st1" d="M493.22003,113.49245c-17.72345,0-31.9603-8.71644-32.54138-25.85876h21.50055
		c0.58109,6.39206,4.64877,9.29754,10.16916,9.29754c5.81097,0,9.5881-2.90548,9.5881-7.8448
		c0-15.39904-41.54837-6.97316-41.25781-36.60904c0-15.6896,12.78409-24.69658,30.50754-24.69658
		c18.01398,0,30.50754,9.00698,31.08865,24.98712h-21.79111c-0.29059-5.22986-4.06766-8.4259-9.5881-8.71644
		c-4.9393,0-8.42587,2.32438-8.42587,7.55424c0,14.23685,40.96725,7.8448,40.96725,35.7374
		C523.43701,101.87053,512.39618,113.49245,493.22003,113.49245z"/>
	<path class="st1" d="M556.26892,45.79477c9.8786,0,16.56122,4.35822,20.33838,10.16918v-9.29754h20.04779v65.95439H576.6073
		v-9.29753c-3.77716,5.81096-10.45978,10.16917-20.33838,10.16917c-15.9801,0-29.05481-13.07465-29.05481-34.28466
		C526.92358,58.86943,539.99823,45.79477,556.26892,45.79477z M562.0799,63.22765c-7.55426,0-14.23682,5.52041-14.23682,15.98014
		s6.68262,16.27068,14.23682,16.27068c7.55426,0,14.23682-5.81096,14.23682-16.27068
		C576.31671,69.0386,569.63409,63.22765,562.0799,63.22765z"/>
	<path class="st1" d="M608.56757,63.51819h-7.26367V46.66641h7.26367v-1.74328c0-17.14233,10.45978-25.85877,30.7981-24.98713
		v17.43288c-7.84479-0.5811-10.45972,1.74328-10.45972,8.71644v0.5811h10.75024v16.56124h-10.75024v49.10261h-20.04779V63.51819
		H608.56757z"/>
	<path class="st1" d="M673.65033,113.49245c-19.17615,0-33.41302-13.07465-33.41302-33.99412s13.65582-33.99411,33.41302-33.99411
		c19.17621,0,32.83191,12.78411,32.83191,32.83192c0,1.74329,0,3.77712-0.29059,5.81096H660.2851
		c0.58118,8.71644,6.10156,12.49356,12.49353,12.49356c5.52045,0,8.71649-2.90548,10.45978-6.39206h21.50055
		C702.12402,103.61382,690.50208,113.49245,673.65033,113.49245z M660.57568,73.39683h25.56818
		c0-7.2637-5.52039-11.33138-12.20306-11.33138C666.96771,62.06545,661.73785,65.84258,660.57568,73.39683z"/>
	<path class="st1" d="M753.2605,45.79477c15.9801,0,29.34534,13.07466,29.34534,33.99412
		c0,20.62891-12.78406,34.28466-29.34534,34.28466c-9.58807,0-16.56128-4.64877-20.33838-10.16918V144h-20.04779V46.66641h20.04779
		v9.29754C736.69922,50.15299,743.67236,45.79477,753.2605,45.79477z M747.15894,63.22765
		c-7.55426,0-14.23682,5.81096-14.23682,16.27068s6.68256,16.27068,14.23682,16.27068s14.5274-5.81096,14.5274-16.27068
		S754.7132,63.22765,747.15894,63.22765z"/>
	<path class="st1" d="M815.43774,45.79477c9.8786,0,16.56128,4.35822,20.33838,10.16918v-9.29754h20.04779v65.95439h-20.04779
		v-9.29753c-3.7771,5.81096-10.45978,10.16917-20.33838,10.16917c-15.98016,0-29.05481-13.07465-29.05481-34.28466
		C786.67352,58.86943,799.45758,45.79477,815.43774,45.79477z M821.82983,63.22765c-7.55426,0-14.23682,5.52041-14.23682,15.98014
		s6.68256,16.27068,14.23682,16.27068s14.23682-5.81096,14.23682-16.27068C836.06665,69.0386,829.38397,63.22765,821.82983,63.22765
		z"/>
	<path class="st1" d="M914.22406,46.66641h21.79108l-41.54834,97.33357h-21.50049l15.10852-33.41302l-27.02094-63.63002h22.37225
		l15.10852,41.25782L914.22406,46.66641z"/>
</g>
<g>
	<polygon class="st0" points="0,0 0,144 144,144 	"/>
	<polygon class="st1" points="144,0 72,72 144,144 	"/>
</g>
</svg>
