<?xml version="1.0" encoding="utf-8"?>
<!-- Generator: Adobe Illustrator 25.4.1, SVG Export Plug-In . SVG Version: 6.00 Build 0)  -->
<svg version="1.1" id="Layer_1" xmlns="http://www.w3.org/2000/svg" xmlns:xlink="http://www.w3.org/1999/xlink" x="0px" y="0px"
	 viewBox="0 0 755.4248 125.80729" style="enable-background:new 0 0 755.4248 125.80729;" xml:space="preserve">
<style type="text/css">
	.st0{fill:#00ABEE;}
	.st1{fill:#FFFFFF;}
</style>
<g>
	<path class="st0" d="M0,11.62191h24.11549l23.24384,57.5285l22.66275-57.5285h23.82493v83.09673H73.79919V44.74438
		L55.20412,94.4281H38.93344L20.6289,44.45384V94.4281H0V11.62191z"/>
	<path class="st0" d="M169.09892,94.4281h-20.04779v-9.00699c-4.06766,5.52042-11.04083,9.58808-19.75728,9.58808
		c-15.10848,0-25.56823-10.45972-25.56823-28.18315V28.4737h20.0478v36.02795c0,9.00698,4.9393,13.9463,12.49358,13.9463
		c7.84479,0,12.78409-4.93932,12.78409-13.9463V28.4737h20.04779v65.9544H169.09892z"/>
	<path class="st0" d="M178.97758,7.26369h20.04779v87.45495h-20.04779V7.26369z"/>
	<path class="st0" d="M212.10004,45.32548h-8.13535V28.4737h8.13535V11.62192h20.04779V28.4737h13.07466v16.56124H232.4384v26.73042
		c0,3.77712,1.7433,5.52042,6.10152,5.52042h7.2637v17.14233h-10.16917c-13.65575,0-23.24384-5.81096-23.24384-22.95329V45.32549
		C212.39061,45.32549,212.10004,45.32549,212.10004,45.32548z"/>
	<path class="st0" d="M250.45236,11.04082C250.45236,4.93931,255.39168,0,262.36484,0c6.97314,0,11.91251,4.93932,11.91251,11.04082
		s-4.93933,10.75028-11.91251,10.75028C255.10115,21.7911,250.45236,16.85178,250.45236,11.04082z M252.19566,28.4737h20.04781
		v65.9544h-20.04781V28.4737z"/>
	<path class="st1" d="M312.62967,95.29974c-17.72345,0-31.9603-8.71645-32.54138-25.85876h21.50055
		c0.58109,6.39205,4.64877,9.29753,10.16916,9.29753c5.81097,0,9.5881-2.90548,9.5881-7.8448
		c0-15.39904-41.54837-6.97316-41.25781-36.60904c0-15.6896,12.78409-24.69658,30.50754-24.69658
		c18.01398,0,30.50754,9.00698,31.08862,24.98712h-21.79108c-0.29059-5.22986-4.06766-8.42589-9.5881-8.71644
		c-4.9393,0-8.42587,2.32438-8.42587,7.55424c0,14.23685,40.96729,7.8448,40.96729,35.7374
		C342.84665,83.67782,331.80582,95.29974,312.62967,95.29974z"/>
	<path class="st1" d="M375.67856,27.60206c9.87863,0,16.56125,4.35822,20.33838,10.16918V28.4737h20.04779v65.9544h-20.04779
		v-9.29754c-3.77713,5.81096-10.45975,10.16918-20.33838,10.16918c-15.98013,0-29.05478-13.07466-29.05478-34.28466
		C346.33319,40.67672,359.40787,27.60206,375.67856,27.60206z M381.48953,45.03494c-7.55426,0-14.23685,5.52042-14.23685,15.98014
		s6.68262,16.27068,14.23685,16.27068c7.55426,0,14.23682-5.81096,14.23682-16.27068
		C395.72635,50.8459,389.04376,45.03494,381.48953,45.03494z"/>
	<path class="st1" d="M427.9772,45.32548h-7.2637V28.4737h7.2637v-1.74328c0-17.14233,10.45975-25.85877,30.7981-24.98713v17.43287
		c-7.84479-0.5811-10.45975,1.74328-10.45975,8.71644v0.5811h10.75027v16.56124h-10.75027v49.10262h-20.04779V45.32548H427.9772z"/>
	<path class="st1" d="M493.06,95.29974c-19.17621,0-33.41302-13.07466-33.41302-33.99412S473.30276,27.3115,493.06,27.3115
		c19.17615,0,32.83185,12.78412,32.83185,32.83192c0,1.74329,0,3.77712-0.29053,5.81096h-45.90656
		c0.58112,8.71645,6.10153,12.49356,12.49353,12.49356c5.52039,0,8.71643-2.90548,10.45975-6.39205h21.50052
		C521.53363,85.4211,509.91174,95.29974,493.06,95.29974z M479.98532,55.20412h25.56821
		c0-7.2637-5.52042-11.33138-12.20306-11.33138C486.37732,43.87274,481.14749,47.64986,479.98532,55.20412z"/>
	<path class="st1" d="M572.6701,27.60206c15.98016,0,29.3454,13.07466,29.3454,33.99412
		c0,20.62891-12.78412,34.28466-29.3454,34.28466c-9.58801,0-16.56128-4.64876-20.33832-10.16917v40.09563h-20.04785V28.4737
		h20.04785v9.29754C556.10883,31.96028,563.08197,27.60206,572.6701,27.60206z M566.5686,45.03494
		c-7.55426,0-14.23682,5.81096-14.23682,16.27068s6.68256,16.27069,14.23682,16.27069s14.5274-5.81097,14.5274-16.27069
		S574.12286,45.03494,566.5686,45.03494z"/>
	<path class="st1" d="M634.84735,27.60206c9.87866,0,16.56128,4.35822,20.33838,10.16918V28.4737h20.04779v65.9544h-20.04779
		v-9.29754c-3.7771,5.81096-10.45972,10.16918-20.33838,10.16918c-15.9801,0-29.05475-13.07466-29.05475-34.28466
		C606.08313,40.67672,618.86725,27.60206,634.84735,27.60206z M641.23944,45.03494c-7.55426,0-14.23682,5.52042-14.23682,15.98014
		s6.68256,16.27068,14.23682,16.27068s14.23688-5.81096,14.23688-16.27068C655.47632,50.8459,648.79364,45.03494,641.23944,45.03494
		z"/>
	<path class="st1" d="M733.63367,28.4737h21.79114l-41.54834,97.33356h-21.50055l15.10852-33.41302L680.4635,28.76423h22.37225
		l15.10852,41.25781L733.63367,28.4737z"/>
</g>
</svg>
