<?xml version="1.0" encoding="utf-8"?>
<!-- Generator: Adobe Illustrator 26.0.2, SVG Export Plug-In . SVG Version: 6.00 Build 0)  -->
<svg version="1.1" id="Layer_1" xmlns="http://www.w3.org/2000/svg" xmlns:xlink="http://www.w3.org/1999/xlink" x="0px" y="0px"
	 viewBox="0 0 866 148" style="enable-background:new 0 0 866 148;" xml:space="preserve">
<style type="text/css">
	.st0{fill:#00ABEE;}
	.st1{fill:#FFFFFF;}
</style>
<g id="Layer_2_00000166673749253297817770000017646450070095562128_">
	<g id="Layer_1-2">
		<path class="st0" d="M152,40.00642h22.79314l21.96915,54.18506l21.42-54.18506h22.51857V118h-18.94856V71.20368L204.17685,118
			h-15.37828l-17.30084-47.06989V118H152V40.00642z"/>
		<path class="st0" d="M311.82571,117.99914H292.8786v-8.48361c-4.42834,5.81644-11.36588,9.17128-18.67487,9.03075
			c-14.28,0-24.16628-9.85176-24.16628-26.54511V55.8779h18.94853v33.93383c0,8.48361,4.66858,13.13577,11.80859,13.13577
			c7.41455,0,12.08401-4.65216,12.08401-13.13577V55.8779h18.94711V117.99914z"/>
		<path class="st0" d="M321.16284,35.90228h18.95001V118h-18.95001V35.90228z"/>
		<path class="st0" d="M352.46857,71.5H344.78V55.87877h7.68857V40.00642h18.95001v15.87235h12.35568v15.59877h-12.08286v25.177
			c0,3.55758,1.64856,5.19958,5.76715,5.19958h6.86716V118h-9.61288c-12.90714,0-21.96857-5.47316-21.96857-21.61936V71.5H352.46857
			z"/>
		<path class="st0" d="M388.71713,39.45928c0-5.747,4.67004-10.39918,11.26147-10.39918
			c6.5885,0,11.25854,4.65216,11.25854,10.39918c0,5.74673-4.67004,10.12561-11.25854,10.12561
			C393.11142,49.58489,388.71713,44.93244,388.71713,39.45928z M390.36575,55.87905h18.95001v62.12124h-18.95001V55.87905z"/>
		<path class="st1" d="M447.48572,118.82188c-16.75,0-30.20569-8.20975-30.75714-24.35595h20.32288
			c0.54855,6.02059,4.39432,8.75717,9.60999,8.75717c5.49429,0,9.06433-2.73658,9.06433-7.38874
			c0-14.5042-39.26999-6.568-38.99719-34.48156c0-14.77777,12.08282-23.26108,28.83572-23.26108
			c17.0257,0,28.83572,8.48331,29.38431,23.53494h-20.59573c-0.27573-4.926-3.84573-7.93646-9.06433-8.21
			c-4.66714,0-7.96429,2.18944-7.96429,7.11517c0,13.40962,38.72147,7.389,38.72147,33.66055
			C476.04568,107.87555,465.61142,118.82188,447.48572,118.82188z"/>
		<path class="st1" d="M507.07858,55.05835c9.33713,0,15.65286,4.105,19.22287,9.57817v-8.75717h18.94714v62.12153h-18.94714
			v-8.75718c-3.57001,5.47316-9.88574,9.57818-19.22284,9.57818c-15.10428,0-27.46286-12.31506-27.46286-32.29213
			C479.34286,67.3734,491.69858,55.05835,507.07858,55.05835z M512.57001,71.47812c-7.14001,0-13.45572,5.19959-13.45572,15.05163
			c0,9.85175,6.31573,15.32492,13.45572,15.32492c7.13995,0,13.45569-5.47317,13.45569-15.32492
			C526.0257,76.95157,519.71002,71.47812,512.57001,71.47812z"/>
		<path class="st1" d="M556.50708,71.5h-6.86426V55.87877h6.86426v-1.642c0-16.14592,9.88861-24.35583,29.11145-23.53486v16.41968
			c-7.41571-0.54743-9.88568,1.642-9.88568,8.21v0.54715h10.15857v15.5988h-10.15851V118H556.7829V71.5H556.50708z"/>
		<path class="st1" d="M618.02142,118.821c-18.1228,0-31.57849-12.31475-31.57849-32.01855
			c0-19.7035,12.9071-32.01826,31.57849-32.01826c18.12579,0,31.0329,12.0409,31.0329,30.92369
			c0.03906,1.82864-0.0531,3.65771-0.27576,5.47316h-43.38855c0.54852,8.21,5.76715,11.76763,11.80713,11.76763
			c4.21191,0.18341,8.11774-2.19461,9.88861-6.0206h20.32001C644.93573,109.5164,633.95001,118.821,618.02142,118.821z
			 M605.66571,81.05572h24.16571c0-6.8416-5.21863-10.67275-11.5343-10.67275
			C611.70569,70.383,606.76288,73.94055,605.66571,81.05572z"/>
		<path class="st1" d="M693.26715,55.05835c15.10431,0,27.73572,12.31505,27.73572,32.01854
			c0,19.42993-12.08282,32.29213-27.73572,32.29213c-9.0614,0-15.65283-4.37859-19.22284-9.57818V148H655.0943V55.87935h18.95001
			v8.75717C677.61426,59.16336,684.20575,55.05835,693.26715,55.05835z M687.5,71.47812
			c-7.14001,0-13.45569,5.47345-13.45569,15.3252s6.31567,15.32492,13.45569,15.32492s13.73145-5.47317,13.73145-15.32492
			S694.64001,71.47812,687.5,71.47812z"/>
		<path class="st1" d="M752.03571,55.05835c9.33716,0,15.65289,4.105,19.2229,9.57817v-8.75717h18.94708v62.12153h-18.94708
			v-8.75718c-3.57001,5.47316-9.88574,9.57818-19.2229,9.57818c-15.10425,0-27.46283-12.31506-27.46283-32.29213
			C724.84857,67.3734,736.93146,55.05835,752.03571,55.05835z M758.07568,71.47812c-7.14008,0-13.45575,5.19959-13.45575,15.05163
			c0,9.85175,6.31567,15.32492,13.45575,15.32492c7.14001,0,13.45569-5.47317,13.45569-15.32492
			c0-9.57818-6.31567-15.05163-13.45563-15.05163H758.07568z"/>
		<path class="st1" d="M845.4043,55.8779H866l-39.18292,91.18219H806.5l14.19006-30.97655L795,55.875h21.14722l14.42859,39.13632
			L845.4043,55.8779z"/>
		<path class="st0" d="M118,98.8129L0,0v118h118V98.8129z"/>
		<path class="st1" d="M118,0L63.29094,45.77531L118,91.55091V0z"/>
	</g>
</g>
</svg>
